<svg xmlns="http://www.w3.org/2000/svg" xml:space="preserve" viewBox="0 0 512 512"><path d="M68.085 347.833h16.34v142.38h-16.34zM427.574 347.833h16.34v142.38h-16.34z" style="fill:#feeb5c"/><path d="M283.234 8.17v87.149L245.106 128 256 8.17z" style="fill:#e0315b"/><path d="M256 8.17V128l-27.234-32.681V8.17z" style="fill:#ea5a7d"/><path d="m317.843 216.489-34.609-45.677 21.787 333.018h32.681V275.641c0-22.223-7.408-42.703-19.859-59.152z" style="fill:#7a3e25"/><path d="M305.021 275.641V503.83H174.298V275.641c0-22.223 7.408-42.703 19.859-59.152l34.609-45.677V95.319h54.468v75.493l13.846 45.677c4.978 16.449 7.941 36.929 7.941 59.152z" style="fill:#a65a3a"/><path d="M337.702 316.819v130.723h-32.681l-43.574-70.808 43.574-59.915z" style="fill:#fff9cf"/><path d="M228.766 316.819h76.255v130.723h-76.255z" style="fill:#fff"/><path d="M19.055 503.83h114.383c-28.596 0-28.596-21.787-57.191-21.787S47.651 503.83 19.055 503.83z" style="fill:#fff296"/><path d="m136.864 181.71 2.879 65.364-74.85 43.245 41.908-108.609z" style="fill:#feeb5c"/><path d="M107.999 247.074c0 .076.24 10.978.468 21.457-16.025 11.003-32.212 22.114-32.212 22.114l-63.488-43.571 2.879-65.365h91.155l1.198 65.365z" style="fill:#fff296"/><path d="M141.541 287.716s-1.797-40.641-1.808-40.641H108L76.255 356.008c36.101 0 65.362-29.26 65.362-65.362 0-.98-.033-1.961-.076-2.93z" style="fill:#e0315b"/><path d="M108.893 287.716c.022.97.044 1.95.044 2.93 0 36.101-14.63 65.362-32.681 65.362-36.101 0-65.362-29.26-65.362-65.362 0-.98.033-1.961.076-2.93l1.787-40.641H108c-.001.151.893 40.641.893 40.641z" style="fill:#ea5a7d"/><path d="M131.9 512H20.612a8.17 8.17 0 0 1 0-16.34H131.9a8.17 8.17 0 0 1 0 16.34z" style="fill:#feeb5c"/><path d="M378.544 503.83h114.383c-28.596 0-28.596-21.787-57.191-21.787s-28.596 21.787-57.192 21.787z" style="fill:#fff296"/><path d="m496.353 181.71 2.88 65.364-74.85 43.245L466.29 181.71z" style="fill:#feeb5c"/><path d="M467.489 247.074c0 .076.24 10.978.468 21.457-16.025 11.003-32.212 22.114-32.212 22.114l-63.488-43.571 2.879-65.365h91.155l1.198 65.365z" style="fill:#fff296"/><path d="M501.03 287.716s-1.797-40.641-1.808-40.641h-31.733l-31.744 108.933c36.101 0 65.362-29.26 65.362-65.362a66.181 66.181 0 0 0-.077-2.93z" style="fill:#e0315b"/><path d="M468.382 287.716c.022.97.044 1.95.044 2.93 0 36.101-14.63 65.362-32.681 65.362-36.101 0-65.362-29.26-65.362-65.362 0-.98.033-1.961.076-2.93l1.787-40.641h95.243c0 .151.893 40.641.893 40.641z" style="fill:#ea5a7d"/><path d="M491.389 512H380.101a8.17 8.17 0 0 1 0-16.34h111.288a8.17 8.17 0 0 1 0 16.34z" style="fill:#feeb5c"/><path d="M283.234 16.34h-54.468a8.17 8.17 0 0 1 0-16.34h54.468a8.17 8.17 0 0 1 0 16.34z" style="fill:#e0315b"/></svg>